# xmcd CD database file
#
# Track frame offsets:
#	150
#	11800
#	25486
#	37585
#	49554
#	62295
#	74261
#	87908
#	101110
#	115557
#	128220
#	140203
#	152984
#	165283
#	177981
#	191158
#	203193
#	213945
#	226304
#	239470
#	250372
#	262056
#	274557
#	285832
#
# Disc length: 3960 seconds
#
# Revision: 0
# Processed by: cddbd v1.5PL3 Copyright (c) Steve Scherf et al.
# Submitted via: CDex 1.40Release
#
DISCID=510f7618
DTITLE=Eddy Arnold - Eddy's Song, CD 4, A Full Time Job
DYEAR=2003
DGENRE=Country
TTITLE0=You Know How Talk Gets Around
TTITLE1=M-O-T-H-E-R (A Word That Means A World To Me)
TTITLE2=I Wouldn't Trade The Silver In My Mother's Hair
TTITLE3=That Wonderful Mother Of Mine
TTITLE4=Bring Your Roses To Her Now
TTITLE5=I Wish I Had A Girl Like You Mother
TTITLE6=My Mother's Sweet Voice
TTITLE7=Many Tears Ago (2)
TTITLE8=I Walk Alone (2)
TTITLE9=Shepherd Of My Heart
TTITLE10=Evil Tempt Me Not
TTITLE11=When Jesus Beckons Me Home
TTITLE12=Beautiful Isle Of Somewhere
TTITLE13=The Lily Of The Valley
TTITLE14=Softly And Tenderly
TTITLE15=The Nearest Thing To Heaven
TTITLE16=The Cattle Call (2)
TTITLE17=Tie Me To Your Apron Strings Again
TTITLE18=A Million Miles From Your Heart
TTITLE19=Something Old, Something New, Something Borrowed, Something Blue
TTITLE20=Roll Along Kentucky Moon
TTITLE21=When My Blue Moon Turns To Gold Again
TTITLE22=A Full Time Job
TTITLE23=Condemned Without Trial
EXTD=YEAR: 2003 ID3G: 2
EXTT0=
EXTT1=
EXTT2=
EXTT3=
EXTT4=
EXTT5=
EXTT6=
EXTT7=
EXTT8=
EXTT9=
EXTT10=
EXTT11=
EXTT12=
EXTT13=
EXTT14=
EXTT15=
EXTT16=
EXTT17=
EXTT18=
EXTT19=
EXTT20=
EXTT21=
EXTT22=
EXTT23=
PLAYORDER=
